<svg width="95" height="94" viewBox="0 0 95 94" fill="none" xmlns="http://www.w3.org/2000/svg">
<rect x="0.1" y="0.1" width="94.8" height="93.8" rx="18.9" fill="url(#paint0_linear_101_17)" stroke="black" stroke-width="0.2"/>
<path d="M10.0201 56V41.024H5.50813V39.2H16.5481V41.024H12.0361V56H10.0201ZM25.2747 41.984C24.7947 41.984 24.3948 41.824 24.0748 41.504C23.7548 41.184 23.5948 40.8 23.5948 40.352C23.5948 39.888 23.7548 39.504 24.0748 39.2C24.3948 38.88 24.7947 38.72 25.2747 38.72C25.7388 38.72 26.1308 38.88 26.4508 39.2C26.7868 39.504 26.9548 39.888 26.9548 40.352C26.9548 40.8 26.7868 41.184 26.4508 41.504C26.1308 41.824 25.7388 41.984 25.2747 41.984ZM20.6188 56V54.272H24.4108V46.424C24.4108 46.024 24.2108 45.824 23.8108 45.824H21.0268V44.096H24.2908C25.7148 44.096 26.4268 44.808 26.4268 46.232V54.272H30.2188V56H20.6188ZM34.4814 61.28V44.096H36.1134L36.3534 46.064H36.4974C36.8014 45.424 37.2894 44.888 37.9614 44.456C38.6334 44.024 39.4254 43.808 40.3374 43.808C41.2974 43.808 42.1614 44.048 42.9294 44.528C43.7134 45.008 44.3294 45.72 44.7774 46.664C45.2254 47.592 45.4494 48.728 45.4494 50.072C45.4494 51.4 45.2174 52.528 44.7534 53.456C44.3054 54.384 43.6814 55.088 42.8814 55.568C42.0974 56.048 41.1934 56.288 40.1694 56.288C39.2574 56.288 38.4814 56.096 37.8414 55.712C37.2174 55.312 36.7694 54.848 36.4974 54.32V61.28H34.4814ZM39.9294 54.368C40.9374 54.368 41.7694 54.016 42.4254 53.312C43.0814 52.592 43.4094 51.504 43.4094 50.048C43.4094 48.592 43.0814 47.512 42.4254 46.808C41.7694 46.088 40.9374 45.728 39.9294 45.728C38.9214 45.728 38.0894 46.088 37.4334 46.808C36.7774 47.512 36.4494 48.592 36.4494 50.048C36.4494 51.504 36.7774 52.592 37.4334 53.312C38.0894 54.016 38.9214 54.368 39.9294 54.368ZM48.872 61.28V44.096H50.504L50.744 46.064H50.888C51.192 45.424 51.68 44.888 52.352 44.456C53.024 44.024 53.816 43.808 54.728 43.808C55.688 43.808 56.552 44.048 57.32 44.528C58.104 45.008 58.72 45.72 59.168 46.664C59.616 47.592 59.84 48.728 59.84 50.072C59.84 51.4 59.608 52.528 59.144 53.456C58.696 54.384 58.072 55.088 57.272 55.568C56.488 56.048 55.584 56.288 54.56 56.288C53.648 56.288 52.872 56.096 52.232 55.712C51.608 55.312 51.16 54.848 50.888 54.32V61.28H48.872ZM54.32 54.368C55.328 54.368 56.16 54.016 56.816 53.312C57.472 52.592 57.8 51.504 57.8 50.048C57.8 48.592 57.472 47.512 56.816 46.808C56.16 46.088 55.328 45.728 54.32 45.728C53.312 45.728 52.48 46.088 51.824 46.808C51.168 47.512 50.84 48.592 50.84 50.048C50.84 51.504 51.168 52.592 51.824 53.312C52.48 54.016 53.312 54.368 54.32 54.368ZM68.7826 56.288C67.1346 56.288 65.8706 55.824 64.9906 54.896C64.1106 53.952 63.6706 52.656 63.6706 51.008H65.7106C65.7266 51.952 65.9746 52.76 66.4546 53.432C66.9346 54.088 67.7026 54.416 68.7586 54.416C69.8146 54.416 70.5666 54.096 71.0146 53.456C71.4786 52.816 71.7106 52.016 71.7106 51.056V39.2H73.7266V51.056C73.7266 52.736 73.2946 54.032 72.4306 54.944C71.5666 55.84 70.3506 56.288 68.7826 56.288ZM83.1493 56.288C81.9653 56.288 80.9333 56.064 80.0533 55.616C79.1893 55.168 78.5173 54.544 78.0373 53.744C77.5733 52.944 77.3333 52.008 77.3173 50.936H79.4293C79.4453 51.896 79.7653 52.728 80.3893 53.432C81.0293 54.12 81.9493 54.464 83.1493 54.464C84.2533 54.464 85.1013 54.2 85.6933 53.672C86.3013 53.128 86.6053 52.48 86.6053 51.728C86.6053 51.104 86.4613 50.584 86.1733 50.168C85.8853 49.736 85.4133 49.36 84.7573 49.04C84.1173 48.704 83.2533 48.36 82.1653 48.008C80.6293 47.544 79.5093 46.912 78.8053 46.112C78.1013 45.312 77.7493 44.32 77.7493 43.136C77.7493 42.336 77.9573 41.616 78.3733 40.976C78.7893 40.336 79.3893 39.832 80.1733 39.464C80.9573 39.096 81.9093 38.912 83.0293 38.912C84.0853 38.912 85.0053 39.112 85.7893 39.512C86.5893 39.896 87.2053 40.44 87.6373 41.144C88.0853 41.848 88.3093 42.656 88.3093 43.568H86.1973C86.1973 43.12 86.0773 42.68 85.8373 42.248C85.5973 41.816 85.2373 41.456 84.7573 41.168C84.2773 40.88 83.6693 40.736 82.9333 40.736C82.0533 40.736 81.3173 40.952 80.7253 41.384C80.1333 41.8 79.8373 42.376 79.8373 43.112C79.8373 43.672 79.9653 44.144 80.2213 44.528C80.4933 44.912 80.9333 45.264 81.5413 45.584C82.1493 45.888 82.9733 46.216 84.0133 46.568C84.9893 46.888 85.8213 47.264 86.5093 47.696C87.2133 48.112 87.7493 48.632 88.1172 49.256C88.5013 49.88 88.6933 50.656 88.6933 51.584C88.6933 52.496 88.4613 53.304 87.9973 54.008C87.5333 54.712 86.8853 55.272 86.0533 55.688C85.2213 56.088 84.2533 56.288 83.1493 56.288Z" fill="white"/>
<path d="M10.0201 56H9.02013V57H10.0201V56ZM10.0201 41.024H11.0201V40.024H10.0201V41.024ZM5.50813 41.024H4.50813V42.024H5.50813V41.024ZM5.50813 39.2V38.2H4.50813V39.2H5.50813ZM16.5481 39.2H17.5481V38.2H16.5481V39.2ZM16.5481 41.024V42.024H17.5481V41.024H16.5481ZM12.0361 41.024V40.024H11.0361V41.024H12.0361ZM12.0361 56V57H13.0361V56H12.0361ZM11.0201 56V41.024H9.02013V56H11.0201ZM10.0201 40.024H5.50813V42.024H10.0201V40.024ZM6.50813 41.024V39.2H4.50813V41.024H6.50813ZM5.50813 40.2H16.5481V38.2H5.50813V40.2ZM15.5481 39.2V41.024H17.5481V39.2H15.5481ZM16.5481 40.024H12.0361V42.024H16.5481V40.024ZM11.0361 41.024V56H13.0361V41.024H11.0361ZM12.0361 55H10.0201V57H12.0361V55ZM24.0748 41.504L24.7819 40.7969L24.0748 41.504ZM24.0748 39.2L24.7635 39.925L24.7728 39.9162L24.7819 39.9071L24.0748 39.2ZM26.4508 39.2L25.7436 39.9071L25.7613 39.9248L25.7798 39.9415L26.4508 39.2ZM26.4508 41.504L25.7611 40.7799L25.7523 40.7883L25.7436 40.7969L26.4508 41.504ZM20.6187 56H19.6187V57H20.6187V56ZM20.6187 54.272V53.272H19.6187V54.272H20.6187ZM24.4108 54.272V55.272H25.4108V54.272H24.4108ZM21.0268 45.824H20.0268V46.824H21.0268V45.824ZM21.0268 44.096V43.096H20.0268V44.096H21.0268ZM26.4268 54.272H25.4268V55.272H26.4268V54.272ZM30.2188 54.272H31.2188V53.272H30.2188V54.272ZM30.2188 56V57H31.2188V56H30.2188ZM25.2747 40.984C25.0421 40.984 24.9021 40.9171 24.7819 40.7969L23.3676 42.2111C23.8874 42.7309 24.5474 42.984 25.2747 42.984V40.984ZM24.7819 40.7969C24.6473 40.6623 24.5947 40.5318 24.5947 40.352H22.5947C22.5947 41.0682 22.8622 41.7057 23.3676 42.2111L24.7819 40.7969ZM24.5947 40.352C24.5947 40.1464 24.6534 40.0296 24.7635 39.925L23.386 38.475C22.8561 38.9784 22.5947 39.6296 22.5947 40.352H24.5947ZM24.7819 39.9071C24.9021 39.7869 25.0421 39.72 25.2747 39.72V37.72C24.5474 37.72 23.8874 37.9731 23.3676 38.4929L24.7819 39.9071ZM25.2747 39.72C25.4811 39.72 25.6164 39.7799 25.7436 39.9071L27.1579 38.4929C26.6451 37.9801 25.9965 37.72 25.2747 37.72V39.72ZM25.7798 39.9415C25.9006 40.0508 25.9548 40.1628 25.9548 40.352H27.9548C27.9548 39.6132 27.6729 38.9572 27.1217 38.4585L25.7798 39.9415ZM25.9548 40.352C25.9548 40.5155 25.9069 40.641 25.7611 40.7799L27.1404 42.2281C27.6666 41.727 27.9548 41.0845 27.9548 40.352H25.9548ZM25.7436 40.7969C25.6164 40.9241 25.4811 40.984 25.2747 40.984V42.984C25.9965 42.984 26.6451 42.7239 27.1579 42.2111L25.7436 40.7969ZM21.6187 56V54.272H19.6187V56H21.6187ZM20.6187 55.272H24.4108V53.272H20.6187V55.272ZM25.4108 54.272V46.424H23.4108V54.272H25.4108ZM25.4108 46.424C25.4108 46.0699 25.3215 45.6206 24.9679 45.2669C24.6142 44.9132 24.1649 44.824 23.8108 44.824V46.824C23.8566 46.824 23.7073 46.8348 23.5536 46.6811C23.4 46.5274 23.4108 46.3781 23.4108 46.424H25.4108ZM23.8108 44.824H21.0268V46.824H23.8108V44.824ZM22.0268 45.824V44.096H20.0268V45.824H22.0268ZM21.0268 45.096H24.2908V43.096H21.0268V45.096ZM24.2908 45.096C24.8486 45.096 25.0833 45.2348 25.1856 45.3371C25.288 45.4394 25.4268 45.6741 25.4268 46.232H27.4268C27.4268 45.3659 27.2095 44.5326 26.5999 43.9229C25.9902 43.3132 25.1569 43.096 24.2908 43.096V45.096ZM25.4268 46.232V54.272H27.4268V46.232H25.4268ZM26.4268 55.272H30.2188V53.272H26.4268V55.272ZM29.2188 54.272V56H31.2188V54.272H29.2188ZM30.2188 55H20.6187V57H30.2188V55ZM34.4814 61.28H33.4814V62.28H34.4814V61.28ZM34.4814 44.096V43.096H33.4814V44.096H34.4814ZM36.1134 44.096L37.106 43.9749L36.9988 43.096H36.1134V44.096ZM36.3534 46.064L35.3607 46.1851L35.4679 47.064H36.3534V46.064ZM36.4974 46.064V47.064H37.1295L37.4007 46.4931L36.4974 46.064ZM37.9614 44.456L37.4206 43.6148L37.9614 44.456ZM42.9294 44.528L42.3994 45.376L42.4072 45.3809L42.9294 44.528ZM44.7774 46.664L43.8739 47.0928L43.8768 47.0987L44.7774 46.664ZM44.7534 53.456L43.8589 53.0087L43.8528 53.0212L44.7534 53.456ZM42.8814 55.568L42.3669 54.7105L42.3592 54.7151L42.8814 55.568ZM37.8414 55.712L37.3017 56.5539L37.3142 56.5619L37.3269 56.5695L37.8414 55.712ZM36.4974 54.32L37.3863 53.862L35.4974 54.32H36.4974ZM36.4974 61.28V62.28H37.4974V61.28H36.4974ZM42.4254 53.312L43.157 53.9938L43.1646 53.9855L42.4254 53.312ZM42.4254 46.808L41.6861 47.4815L41.6938 47.4897L42.4254 46.808ZM37.4334 46.808L38.165 47.4898L38.1726 47.4815L37.4334 46.808ZM37.4334 53.312L36.6941 53.9855L36.7018 53.9937L37.4334 53.312ZM35.4814 61.28V44.096H33.4814V61.28H35.4814ZM34.4814 45.096H36.1134V43.096H34.4814V45.096ZM35.1207 44.2171L35.3607 46.1851L37.346 45.9429L37.106 43.9749L35.1207 44.2171ZM36.3534 47.064H36.4974V45.064H36.3534V47.064ZM37.4007 46.4931C37.6147 46.0423 37.9665 45.6415 38.5021 45.2972L37.4206 43.6148C36.6123 44.1345 35.988 44.8057 35.5941 45.6349L37.4007 46.4931ZM38.5021 45.2972C38.9909 44.983 39.5893 44.808 40.3374 44.808V42.808C39.2615 42.808 38.2759 43.065 37.4206 43.6148L38.5021 45.2972ZM40.3374 44.808C41.1217 44.808 41.8 45.0014 42.3994 45.376L43.4594 43.68C42.5228 43.0946 41.473 42.808 40.3374 42.808V44.808ZM42.4072 45.3809C43.0038 45.7461 43.4975 46.2994 43.874 47.0927L45.6808 46.2353C45.1613 45.1406 44.4229 44.2699 43.4515 43.6751L42.4072 45.3809ZM43.8768 47.0987C44.2426 47.8564 44.4494 48.8345 44.4494 50.072H46.4494C46.4494 48.6215 46.2081 47.3276 45.6779 46.2292L43.8768 47.0987ZM44.4494 50.072C44.4494 51.2869 44.2369 52.253 43.8589 53.0088L45.6478 53.9032C46.1979 52.803 46.4494 51.5131 46.4494 50.072H44.4494ZM43.8528 53.0212C43.4804 53.7928 42.9825 54.3411 42.3669 54.7105L43.3959 56.4255C44.3803 55.8349 45.1304 54.9752 45.6539 53.8907L43.8528 53.0212ZM42.3592 54.7151C41.7498 55.0882 41.0307 55.288 40.1694 55.288V57.288C41.3561 57.288 42.4449 57.0078 43.4035 56.4209L42.3592 54.7151ZM40.1694 55.288C39.3984 55.288 38.8093 55.1266 38.3559 54.8545L37.3269 56.5695C38.1535 57.0654 39.1163 57.288 40.1694 57.288V55.288ZM38.381 54.8701C37.8689 54.5418 37.56 54.1992 37.3863 53.862L35.6084 54.778C35.9787 55.4968 36.5658 56.0822 37.3017 56.5539L38.381 54.8701ZM35.4974 54.32V61.28H37.4974V54.32H35.4974ZM36.4974 60.28H34.4814V62.28H36.4974V60.28ZM39.9294 55.368C41.2 55.368 42.3019 54.9113 43.157 53.9937L41.6938 52.6303C41.2368 53.1207 40.6748 53.368 39.9294 53.368V55.368ZM43.1646 53.9855C44.0548 53.0084 44.4094 51.6328 44.4094 50.048H42.4094C42.4094 51.3752 42.1079 52.1756 41.6862 52.6385L43.1646 53.9855ZM44.4094 50.048C44.4094 48.4655 44.0558 47.0908 43.157 46.1263L41.6938 47.4897C42.107 47.9332 42.4094 48.7185 42.4094 50.048H44.4094ZM43.1646 46.1345C42.3117 45.1984 41.2076 44.728 39.9294 44.728V46.728C40.6671 46.728 41.227 46.9776 41.6862 47.4815L43.1646 46.1345ZM39.9294 44.728C38.6511 44.728 37.547 45.1984 36.6942 46.1345L38.1726 47.4815C38.6317 46.9776 39.1916 46.728 39.9294 46.728V44.728ZM36.7018 46.1263C35.803 47.0908 35.4494 48.4655 35.4494 50.048H37.4494C37.4494 48.7185 37.7518 47.9332 38.165 47.4897L36.7018 46.1263ZM35.4494 50.048C35.4494 51.6328 35.8039 53.0084 36.6942 53.9855L38.1726 52.6385C37.7508 52.1756 37.4494 51.3752 37.4494 50.048H35.4494ZM36.7018 53.9937C37.5568 54.9113 38.6588 55.368 39.9294 55.368V53.368C39.184 53.368 38.6219 53.1207 38.165 52.6303L36.7018 53.9937ZM48.872 61.28H47.872V62.28H48.872V61.28ZM48.872 44.096V43.096H47.872V44.096H48.872ZM50.504 44.096L51.4966 43.9749L51.3895 43.096H50.504V44.096ZM50.744 46.064L49.7514 46.1851L49.8585 47.064H50.744V46.064ZM50.888 46.064V47.064H51.5201L51.7913 46.4931L50.888 46.064ZM52.352 44.456L51.8112 43.6148L52.352 44.456ZM57.32 44.528L56.79 45.376L56.7978 45.3809L57.32 44.528ZM59.168 46.664L58.2646 47.0928L58.2674 47.0987L59.168 46.664ZM59.144 53.456L58.2495 53.0087L58.2435 53.0212L59.144 53.456ZM57.272 55.568L56.7575 54.7105L56.7498 54.7151L57.272 55.568ZM52.232 55.712L51.6923 56.5539L51.7048 56.5619L51.7175 56.5695L52.232 55.712ZM50.888 54.32L51.777 53.862L49.888 54.32H50.888ZM50.888 61.28V62.28H51.888V61.28H50.888ZM56.816 53.312L57.5477 53.9938L57.5552 53.9855L56.816 53.312ZM56.816 46.808L56.0768 47.4815L56.0844 47.4897L56.816 46.808ZM51.824 46.808L52.5557 47.4898L52.5632 47.4815L51.824 46.808ZM51.824 53.312L51.0848 53.9855L51.0924 53.9937L51.824 53.312ZM49.872 61.28V44.096H47.872V61.28H49.872ZM48.872 45.096H50.504V43.096H48.872V45.096ZM49.5114 44.2171L49.7514 46.1851L51.7366 45.9429L51.4966 43.9749L49.5114 44.2171ZM50.744 47.064H50.888V45.064H50.744V47.064ZM51.7913 46.4931C52.0054 46.0423 52.3571 45.6415 52.8928 45.2972L51.8112 43.6148C51.0029 44.1345 50.3786 44.8057 49.9847 45.6349L51.7913 46.4931ZM52.8928 45.2972C53.3815 44.983 53.9799 44.808 54.728 44.808V42.808C53.6521 42.808 52.6665 43.065 51.8112 43.6148L52.8928 45.2972ZM54.728 44.808C55.5123 44.808 56.1906 45.0014 56.79 45.376L57.85 43.68C56.9134 43.0946 55.8637 42.808 54.728 42.808V44.808ZM56.7978 45.3809C57.3944 45.7461 57.8881 46.2994 58.2646 47.0927L60.0714 46.2353C59.5519 45.1406 58.8136 44.2699 57.8422 43.6751L56.7978 45.3809ZM58.2674 47.0987C58.6332 47.8564 58.84 48.8345 58.84 50.072H60.84C60.84 48.6215 60.5988 47.3276 60.0686 46.2292L58.2674 47.0987ZM58.84 50.072C58.84 51.2869 58.6275 52.253 58.2496 53.0088L60.0384 53.9032C60.5885 52.803 60.84 51.5131 60.84 50.072H58.84ZM58.2435 53.0212C57.871 53.7928 57.3731 54.3411 56.7575 54.7105L57.7865 56.4255C58.7709 55.8349 59.521 54.9752 60.0446 53.8907L58.2435 53.0212ZM56.7498 54.7151C56.1405 55.0882 55.4213 55.288 54.56 55.288V57.288C55.7467 57.288 56.8355 57.0078 57.7942 56.4209L56.7498 54.7151ZM54.56 55.288C53.7891 55.288 53.1999 55.1266 52.7465 54.8545L51.7175 56.5695C52.5441 57.0654 53.5069 57.288 54.56 57.288V55.288ZM52.7717 54.8701C52.2595 54.5418 51.9507 54.1992 51.777 53.862L49.999 54.778C50.3693 55.4968 50.9565 56.0822 51.6923 56.5539L52.7717 54.8701ZM49.888 54.32V61.28H51.888V54.32H49.888ZM50.888 60.28H48.872V62.28H50.888V60.28ZM54.32 55.368C55.5906 55.368 56.6926 54.9113 57.5476 53.9937L56.0844 52.6303C55.6274 53.1207 55.0654 53.368 54.32 53.368V55.368ZM57.5552 53.9855C58.4454 53.0084 58.8 51.6328 58.8 50.048H56.8C56.8 51.3752 56.4986 52.1756 56.0768 52.6385L57.5552 53.9855ZM58.8 50.048C58.8 48.4655 58.4464 47.0908 57.5476 46.1263L56.0844 47.4897C56.4976 47.9332 56.8 48.7185 56.8 50.048H58.8ZM57.5552 46.1345C56.7023 45.1984 55.5982 44.728 54.32 44.728V46.728C55.0578 46.728 55.6177 46.9776 56.0768 47.4815L57.5552 46.1345ZM54.32 44.728C53.0418 44.728 51.9377 45.1984 51.0848 46.1345L52.5632 47.4815C53.0223 46.9776 53.5822 46.728 54.32 46.728V44.728ZM51.0924 46.1263C50.1936 47.0908 49.84 48.4655 49.84 50.048H51.84C51.84 48.7185 52.1424 47.9332 52.5556 47.4897L51.0924 46.1263ZM49.84 50.048C49.84 51.6328 50.1946 53.0084 51.0848 53.9855L52.5632 52.6385C52.1414 52.1756 51.84 51.3752 51.84 50.048H49.84ZM51.0924 53.9937C51.9474 54.9113 53.0494 55.368 54.32 55.368V53.368C53.5746 53.368 53.0126 53.1207 52.5556 52.6303L51.0924 53.9937ZM64.9906 54.896L64.2591 55.5779L64.265 55.5841L64.9906 54.896ZM63.6706 51.008V50.008H62.6706V51.008H63.6706ZM65.7106 51.008L66.7105 50.9911L66.6938 50.008H65.7106V51.008ZM66.4546 53.432L65.6408 54.0133L65.6476 54.0225L66.4546 53.432ZM71.0146 53.456L70.205 52.869L70.2001 52.8757L70.1954 52.8825L71.0146 53.456ZM71.7106 39.2V38.2H70.7106V39.2H71.7106ZM73.7266 39.2H74.7266V38.2H73.7266V39.2ZM72.4306 54.944L73.1505 55.6382L73.1566 55.6317L72.4306 54.944ZM68.7826 55.288C67.3255 55.288 66.3568 54.8834 65.7162 54.2079L64.265 55.5841C65.3845 56.7646 66.9437 57.288 68.7826 57.288V55.288ZM65.7221 54.2141C65.0586 53.5024 64.6706 52.4757 64.6706 51.008H62.6706C62.6706 52.8363 63.1627 54.4016 64.2592 55.5779L65.7221 54.2141ZM63.6706 52.008H65.7106V50.008H63.6706V52.008ZM64.7108 51.0249C64.7297 52.1416 65.0268 53.1535 65.6409 54.0132L67.2684 52.8508C66.9225 52.3665 66.7236 51.7624 66.7105 50.9911L64.7108 51.0249ZM65.6476 54.0225C66.3703 55.0102 67.4886 55.416 68.7586 55.416V53.416C67.9167 53.416 67.499 53.1658 67.2617 52.8415L65.6476 54.0225ZM68.7586 55.416C70.0155 55.416 71.1368 55.0253 71.8339 54.0295L70.1954 52.8825C69.9965 53.1667 69.6137 53.416 68.7586 53.416V55.416ZM71.8242 54.043C72.4366 53.1984 72.7106 52.1807 72.7106 51.056H70.7106C70.7106 51.8513 70.5207 52.4336 70.205 52.869L71.8242 54.043ZM72.7106 51.056V39.2H70.7106V51.056H72.7106ZM71.7106 40.2H73.7266V38.2H71.7106V40.2ZM72.7266 39.2V51.056H74.7266V39.2H72.7266ZM72.7266 51.056C72.7266 52.5685 72.3401 53.5855 71.7047 54.2563L73.1566 55.6317C74.2491 54.4785 74.7266 52.9035 74.7266 51.056H72.7266ZM71.7108 54.2499C71.0815 54.9025 70.1538 55.288 68.7826 55.288V57.288C70.5474 57.288 72.0518 56.7775 73.1505 55.6381L71.7108 54.2499ZM80.0533 55.616L79.5929 56.5038L79.5996 56.5072L80.0533 55.616ZM78.0372 53.744L77.1722 54.2457L77.1759 54.2521L77.1798 54.2585L78.0372 53.744ZM77.3173 50.936V49.936H76.3022L76.3174 50.9509L77.3173 50.936ZM79.4293 50.936L80.4291 50.9193L80.4127 49.936H79.4293V50.936ZM80.3893 53.432L79.6409 54.0953L79.6489 54.1043L79.6571 54.1131L80.3893 53.432ZM85.6933 53.672L86.3589 54.4183L86.36 54.4172L85.6933 53.672ZM86.1732 50.168L85.3412 50.7227L85.3461 50.73L85.3511 50.7372L86.1732 50.168ZM84.7572 49.04L84.2924 49.9254L84.3055 49.9323L84.3188 49.9388L84.7572 49.04ZM82.1653 48.008L82.4731 47.0566L82.4638 47.0535L82.4544 47.0507L82.1653 48.008ZM78.8053 46.112L79.556 45.4514L78.8053 46.112ZM78.3733 40.976L77.5348 40.431V40.431L78.3733 40.976ZM80.1732 39.464L80.5982 40.3692L80.1732 39.464ZM85.7893 39.512L85.3348 40.4028L85.3456 40.4083L85.3565 40.4135L85.7893 39.512ZM87.6373 41.144L86.7849 41.667L86.7892 41.674L86.7936 41.6809L87.6373 41.144ZM88.3092 43.568V44.568H89.3092V43.568H88.3092ZM86.1973 43.568H85.1973V44.568H86.1973V43.568ZM85.8372 42.248L86.7114 41.7624L85.8372 42.248ZM80.7253 41.384L81.3002 42.2022L81.3075 42.1971L81.3147 42.1918L80.7253 41.384ZM80.2213 44.528L79.3892 45.0827L79.397 45.0945L79.4052 45.106L80.2213 44.528ZM81.5413 45.584L81.0755 46.4689L81.0847 46.4738L81.094 46.4784L81.5413 45.584ZM84.0133 46.568L83.6926 47.5153L83.7017 47.5182L84.0133 46.568ZM86.5092 47.696L85.9775 48.5429L85.9889 48.5501L86.0005 48.5569L86.5092 47.696ZM88.1172 49.256L87.2559 49.764L87.2607 49.7721L87.2656 49.7801L88.1172 49.256ZM87.9973 54.008L87.1623 53.4577V53.4577L87.9973 54.008ZM86.0533 55.688L86.4865 56.5893L86.4935 56.5859L86.5005 56.5824L86.0533 55.688ZM83.1493 55.288C82.0918 55.288 81.2211 55.0884 80.5069 54.7248L79.5996 56.5072C80.6454 57.0396 81.8387 57.288 83.1493 57.288V55.288ZM80.5136 54.7282C79.8065 54.3616 79.2752 53.8637 78.8947 53.2295L77.1798 54.2585C77.7593 55.2243 78.572 55.9744 79.5929 56.5038L80.5136 54.7282ZM78.9023 53.2423C78.537 52.6124 78.331 51.8494 78.3171 50.9211L76.3174 50.9509C76.3355 52.1666 76.6095 53.2756 77.1722 54.2457L78.9023 53.2423ZM77.3173 51.936H79.4293V49.936H77.3173V51.936ZM78.4294 50.9527C78.4493 52.1459 78.855 53.2087 79.6409 54.0953L81.1376 52.7687C80.6755 52.2473 80.4412 51.6461 80.4291 50.9193L78.4294 50.9527ZM79.6571 54.1131C80.5355 55.0574 81.7531 55.464 83.1493 55.464V53.464C82.1454 53.464 81.523 53.1826 81.1214 52.7509L79.6571 54.1131ZM83.1493 55.464C84.4026 55.464 85.5227 55.164 86.3589 54.4183L85.0276 52.9257C84.6798 53.236 84.1039 53.464 83.1493 53.464V55.464ZM86.36 54.4172C87.1599 53.7016 87.6052 52.7905 87.6052 51.728H85.6052C85.6052 52.1695 85.4426 52.5544 85.0265 52.9268L86.36 54.4172ZM87.6052 51.728C87.6052 50.9485 87.4238 50.2175 86.9954 49.5988L85.3511 50.7372C85.4987 50.9505 85.6052 51.2595 85.6052 51.728H87.6052ZM87.0053 49.6133C86.5869 48.9857 85.9496 48.509 85.1957 48.1412L84.3188 49.9388C84.8769 50.211 85.1836 50.4863 85.3412 50.7227L87.0053 49.6133ZM85.2221 48.1546C84.5115 47.7815 83.5879 47.4172 82.4731 47.0566L81.8574 48.9594C82.9186 49.3028 83.723 49.6265 84.2924 49.9254L85.2221 48.1546ZM82.4544 47.0507C81.0129 46.6153 80.0894 46.0576 79.556 45.4514L78.0545 46.7726C78.9291 47.7664 80.2456 48.4727 81.8761 48.9653L82.4544 47.0507ZM79.556 45.4514C79.0308 44.8546 78.7493 44.1058 78.7493 43.136H76.7493C76.7493 44.5342 77.1717 45.7694 78.0545 46.7726L79.556 45.4514ZM78.7493 43.136C78.7493 42.5197 78.9063 41.9908 79.2117 41.521L77.5348 40.431C77.0082 41.2412 76.7493 42.1523 76.7493 43.136H78.7493ZM79.2117 41.521C79.513 41.0575 79.9596 40.669 80.5982 40.3692L79.7483 38.5588C78.8189 38.995 78.0655 39.6145 77.5348 40.431L79.2117 41.521ZM80.5982 40.3692C81.2162 40.0791 82.0147 39.912 83.0293 39.912V37.912C81.8038 37.912 80.6983 38.1129 79.7483 38.5588L80.5982 40.3692ZM83.0293 39.912C83.9585 39.912 84.717 40.0875 85.3348 40.4028L86.2437 38.6212C85.2935 38.1364 84.212 37.912 83.0293 37.912V39.912ZM85.3565 40.4135C85.9966 40.7208 86.461 41.1392 86.7849 41.667L88.4896 40.621C87.9495 39.7408 87.1819 39.0712 86.222 38.6105L85.3565 40.4135ZM86.7936 41.6809C87.1301 42.2096 87.3092 42.8278 87.3092 43.568H89.3092C89.3092 42.4842 89.0404 41.4864 88.4809 40.6071L86.7936 41.6809ZM88.3092 42.568H86.1973V44.568H88.3092V42.568ZM87.1973 43.568C87.1973 42.933 87.0252 42.3272 86.7114 41.7624L84.9631 42.7336C85.1293 43.0328 85.1973 43.307 85.1973 43.568H87.1973ZM86.7114 41.7624C86.3754 41.1575 85.8818 40.6766 85.2717 40.3105L84.2428 42.0255C84.5927 42.2354 84.8191 42.4745 84.9631 42.7336L86.7114 41.7624ZM85.2717 40.3105C84.5947 39.9043 83.7949 39.736 82.9333 39.736V41.736C83.5436 41.736 83.9598 41.8557 84.2428 42.0255L85.2717 40.3105ZM82.9333 39.736C81.885 39.736 80.9311 39.9958 80.1358 40.5762L81.3147 42.1918C81.7034 41.9082 82.2215 41.736 82.9333 41.736V39.736ZM80.1503 40.5658C79.2864 41.1729 78.8372 42.057 78.8372 43.112H80.8372C80.8372 42.695 80.9801 42.4271 81.3002 42.2022L80.1503 40.5658ZM78.8372 43.112C78.8372 43.8268 79.0022 44.5022 79.3892 45.0827L81.0533 43.9733C80.9283 43.7858 80.8372 43.5172 80.8372 43.112H78.8372ZM79.4052 45.106C79.8003 45.6638 80.3876 46.1068 81.0755 46.4689L82.007 44.6991C81.4789 44.4212 81.1862 44.1602 81.0373 43.95L79.4052 45.106ZM81.094 46.4784C81.76 46.8114 82.6322 47.1563 83.6927 47.5152L84.3338 45.6208C83.3143 45.2757 82.5385 44.9646 81.9885 44.6896L81.094 46.4784ZM83.7017 47.5182C84.6197 47.8192 85.3737 48.1638 85.9775 48.5429L87.041 46.8491C86.2688 46.3642 85.3588 45.9568 84.3248 45.6178L83.7017 47.5182ZM86.0005 48.5569C86.5781 48.8982 86.9843 49.3035 87.2559 49.764L88.9786 48.748C88.5142 47.9605 87.8484 47.3258 87.018 46.8351L86.0005 48.5569ZM87.2656 49.7801C87.5299 50.2095 87.6933 50.7922 87.6933 51.584H89.6933C89.6933 50.5198 89.4726 49.5505 88.9689 48.7319L87.2656 49.7801ZM87.6933 51.584C87.6933 52.3171 87.5098 52.9304 87.1623 53.4577L88.8322 54.5583C89.4127 53.6776 89.6933 52.6749 89.6933 51.584H87.6933ZM87.1623 53.4577C86.8048 54.0001 86.2974 54.4479 85.606 54.7936L86.5005 56.5824C87.4731 56.0961 88.2617 55.4239 88.8322 54.5583L87.1623 53.4577ZM85.62 54.7867C84.9471 55.1102 84.1323 55.288 83.1493 55.288V57.288C84.3742 57.288 85.4954 57.0658 86.4865 56.5893L85.62 54.7867Z" fill="white"/>
<defs>
<linearGradient id="paint0_linear_101_17" x1="93" y1="90.5" x2="-4" y2="-23.5" gradientUnits="userSpaceOnUse">
<stop offset="0.102127" stop-color="#08460B"/>
<stop offset="1" stop-color="#3FFF2F" stop-opacity="0.79"/>
</linearGradient>
</defs>
</svg>
